<svg width="1002" height="497" viewBox="0 0 1002 497" fill="none" xmlns="http://www.w3.org/2000/svg">
<path d="M1001 496C1001 496 -167.736 356.422 21.7885 320.448C211.313 284.474 1215.25 288.791 845.809 247.061C476.373 205.331 -132.029 265.048 141.271 202.453C432.426 173.674 880.144 165.041 722.206 152.09C564.269 139.14 209.94 142.017 252.514 107.483C295.089 72.9477 472.711 78.7035 580.749 67.1919C688.788 55.6802 328.05 54.2413 382.984 42.7297C437.919 31.218 532.682 34.0959 506.587 26.9012C480.493 19.7064 443.413 18.2674 454.4 13.9506C465.386 9.63372 467.446 8.19477 468.133 1" stroke="black"/>
</svg>
